<?xml version="1.0" standalone="no"?>
<!DOCTYPE svg PUBLIC "-//W3C//DTD SVG 20010904//EN"
 "http://www.w3.org/TR/2001/REC-SVG-20010904/DTD/svg10.dtd">
<svg version="1.0" xmlns="http://www.w3.org/2000/svg"
 width="64px" height="64px" viewBox="0 0 556.000000 556.000000"
 preserveAspectRatio="xMidYMid meet">
<metadata>
Created by potrace 1.15, written by Peter Selinger 2001-2017
</metadata>
<g transform="translate(0.000000,556.000000) scale(0.100000,-0.100000)"
fill="#ffffff" stroke="none">
<path d="M900 5535 c-89 -20 -209 -80 -309 -155 -98 -72 -417 -391 -465 -465
-42 -63 -81 -161 -97 -245 -19 -97 -17 -363 5 -494 91 -559 434 -1248 949
-1910 262 -336 682 -777 1012 -1062 746 -644 1540 -1072 2190 -1180 124 -21
402 -24 495 -5 84 16 182 55 245 97 64 43 397 370 459 451 67 90 121 189 148
274 32 102 31 264 -1 359 -75 217 -281 436 -621 660 -197 129 -352 189 -510
197 -225 12 -346 -48 -608 -302 -151 -146 -168 -155 -255 -135 -256 59 -741
443 -1265 1000 -454 482 -650 786 -643 993 1 22 29 58 131 163 187 193 256
293 295 429 24 81 16 263 -14 355 -37 109 -108 245 -196 376 -220 326 -424
514 -633 584 -84 28 -226 35 -312 15z m254 -215 c119 -45 260 -161 385 -319
221 -279 323 -479 324 -636 2 -141 -52 -234 -252 -439 -76 -78 -149 -161 -161
-186 -32 -60 -39 -190 -16 -279 49 -193 213 -450 486 -766 141 -163 637 -658
790 -789 404 -346 674 -496 891 -496 122 0 160 22 330 186 214 207 302 259
444 257 127 -1 292 -73 491 -214 202 -144 343 -280 417 -401 53 -88 70 -154
65 -250 -9 -149 -99 -281 -370 -543 -175 -169 -218 -198 -327 -221 -87 -18
-293 -18 -411 1 -575 94 -1260 445 -1940 995 -360 292 -780 711 -1070 1070
-174 216 -385 512 -486 683 -290 490 -447 878 -509 1257 -19 118 -19 324 -1
411 23 109 53 152 221 326 213 221 343 322 459 359 65 20 177 17 240 -6z"/>
</g>
</svg>
